<mxfile host="app.diagrams.net" modified="2022-01-12T15:26:28.219Z" agent="5.0 (Windows NT 10.0; Win64; x64) AppleWebKit/537.36 (KHTML, like Gecko) Chrome/93.0.4577.82 Safari/537.36" etag="Dpfe5W_3ESY82TrDVoyS" version="16.2.4" type="github">
  <diagram id="Fg8SL7LyGnLLIeBVljwq" name="第 1 页">
    <mxGraphModel dx="1301" dy="559" grid="1" gridSize="10" guides="1" tooltips="1" connect="1" arrows="1" fold="1" page="1" pageScale="1" pageWidth="827" pageHeight="1169" background="#ffffff" math="0" shadow="0">
      <root>
        <mxCell id="0" />
        <mxCell id="1" parent="0" />
        <mxCell id="L4z-0B9pBV4TiBmrwhth-16" value="" style="rounded=0;whiteSpace=wrap;html=1;shadow=1;fontSize=14;fillColor=#dae8fc;strokeColor=#6c8ebf;" vertex="1" parent="1">
          <mxGeometry x="220" y="520" width="98.5" height="40" as="geometry" />
        </mxCell>
        <mxCell id="L4z-0B9pBV4TiBmrwhth-31" style="edgeStyle=orthogonalEdgeStyle;rounded=0;orthogonalLoop=1;jettySize=auto;html=1;exitX=0;exitY=1;exitDx=0;exitDy=0;entryX=0.5;entryY=0;entryDx=0;entryDy=0;fontSize=14;" edge="1" parent="1" source="L4z-0B9pBV4TiBmrwhth-25" target="L4z-0B9pBV4TiBmrwhth-26">
          <mxGeometry relative="1" as="geometry" />
        </mxCell>
        <mxCell id="L4z-0B9pBV4TiBmrwhth-33" style="edgeStyle=orthogonalEdgeStyle;rounded=0;orthogonalLoop=1;jettySize=auto;html=1;exitX=1;exitY=1;exitDx=0;exitDy=0;entryX=0.5;entryY=0;entryDx=0;entryDy=0;fontFamily=Comic Sans MS;fontSize=14;fontColor=#F19C99;" edge="1" parent="1" source="L4z-0B9pBV4TiBmrwhth-25" target="L4z-0B9pBV4TiBmrwhth-32">
          <mxGeometry relative="1" as="geometry" />
        </mxCell>
        <mxCell id="L4z-0B9pBV4TiBmrwhth-25" value="" style="rounded=0;whiteSpace=wrap;html=1;shadow=1;fontSize=14;fillColor=#d5e8d4;strokeColor=#82b366;" vertex="1" parent="1">
          <mxGeometry x="318.5" y="520" width="80" height="40" as="geometry" />
        </mxCell>
        <mxCell id="L4z-0B9pBV4TiBmrwhth-1" value="&lt;font style=&quot;font-size: 14px&quot;&gt;2&lt;/font&gt;" style="rounded=0;whiteSpace=wrap;html=1;fillColor=#f5f5f5;fontColor=#333333;strokeColor=#666666;shadow=1;" vertex="1" parent="1">
          <mxGeometry x="280" y="240" width="40" height="40" as="geometry" />
        </mxCell>
        <mxCell id="L4z-0B9pBV4TiBmrwhth-2" value="&lt;font style=&quot;font-size: 14px&quot;&gt;0&lt;/font&gt;" style="rounded=0;whiteSpace=wrap;html=1;fillColor=#f5f5f5;fontColor=#333333;strokeColor=#666666;shadow=1;" vertex="1" parent="1">
          <mxGeometry x="320" y="240" width="40" height="40" as="geometry" />
        </mxCell>
        <mxCell id="L4z-0B9pBV4TiBmrwhth-3" value="&lt;font style=&quot;font-size: 14px&quot;&gt;2&lt;/font&gt;" style="rounded=0;whiteSpace=wrap;html=1;fillColor=#f5f5f5;fontColor=#333333;strokeColor=#666666;shadow=1;" vertex="1" parent="1">
          <mxGeometry x="360" y="240" width="40" height="40" as="geometry" />
        </mxCell>
        <mxCell id="L4z-0B9pBV4TiBmrwhth-4" value="&lt;font style=&quot;font-size: 14px&quot;&gt;1&lt;/font&gt;" style="rounded=0;whiteSpace=wrap;html=1;fillColor=#f5f5f5;fontColor=#333333;strokeColor=#666666;shadow=1;" vertex="1" parent="1">
          <mxGeometry x="400" y="240" width="40" height="40" as="geometry" />
        </mxCell>
        <mxCell id="L4z-0B9pBV4TiBmrwhth-5" value="&lt;font style=&quot;font-size: 14px&quot;&gt;1&lt;/font&gt;" style="rounded=0;whiteSpace=wrap;html=1;fillColor=#f5f5f5;fontColor=#333333;strokeColor=#666666;shadow=1;" vertex="1" parent="1">
          <mxGeometry x="440" y="240" width="40" height="40" as="geometry" />
        </mxCell>
        <mxCell id="L4z-0B9pBV4TiBmrwhth-6" value="&lt;font style=&quot;font-size: 14px&quot;&gt;0&lt;/font&gt;" style="rounded=0;whiteSpace=wrap;html=1;fillColor=#f5f5f5;fontColor=#333333;strokeColor=#666666;shadow=1;" vertex="1" parent="1">
          <mxGeometry x="480" y="240" width="40" height="40" as="geometry" />
        </mxCell>
        <mxCell id="L4z-0B9pBV4TiBmrwhth-7" value="" style="rounded=0;whiteSpace=wrap;html=1;shadow=1;fontSize=14;fillColor=#dae8fc;strokeColor=#6c8ebf;" vertex="1" parent="1">
          <mxGeometry x="220" y="320" width="120" height="40" as="geometry" />
        </mxCell>
        <mxCell id="L4z-0B9pBV4TiBmrwhth-8" value="" style="rounded=0;whiteSpace=wrap;html=1;shadow=1;fontSize=14;fillColor=#d5e8d4;strokeColor=#82b366;" vertex="1" parent="1">
          <mxGeometry x="340" y="320" width="120" height="40" as="geometry" />
        </mxCell>
        <mxCell id="L4z-0B9pBV4TiBmrwhth-9" value="" style="rounded=0;whiteSpace=wrap;html=1;shadow=1;fontSize=14;fillColor=#f8cecc;strokeColor=#b85450;" vertex="1" parent="1">
          <mxGeometry x="460" y="320" width="120" height="40" as="geometry" />
        </mxCell>
        <mxCell id="L4z-0B9pBV4TiBmrwhth-10" value="" style="shape=curlyBracket;whiteSpace=wrap;html=1;rounded=1;shadow=1;fontSize=14;rotation=-90;size=0.5;" vertex="1" parent="1">
          <mxGeometry x="272.5" y="312.5" width="15" height="120" as="geometry" />
        </mxCell>
        <mxCell id="L4z-0B9pBV4TiBmrwhth-11" value="0" style="text;html=1;strokeColor=none;fillColor=none;align=center;verticalAlign=middle;whiteSpace=wrap;rounded=0;shadow=1;fontSize=14;" vertex="1" parent="1">
          <mxGeometry x="250" y="380" width="60" height="30" as="geometry" />
        </mxCell>
        <mxCell id="L4z-0B9pBV4TiBmrwhth-12" value="" style="shape=curlyBracket;whiteSpace=wrap;html=1;rounded=1;shadow=1;fontSize=14;rotation=-90;size=0.5;" vertex="1" parent="1">
          <mxGeometry x="392.13" y="314.38" width="15" height="116.25" as="geometry" />
        </mxCell>
        <mxCell id="L4z-0B9pBV4TiBmrwhth-13" value="1" style="text;html=1;strokeColor=none;fillColor=none;align=center;verticalAlign=middle;whiteSpace=wrap;rounded=0;shadow=1;fontSize=14;" vertex="1" parent="1">
          <mxGeometry x="371.5" y="380" width="60" height="30" as="geometry" />
        </mxCell>
        <mxCell id="L4z-0B9pBV4TiBmrwhth-14" value="" style="shape=curlyBracket;whiteSpace=wrap;html=1;rounded=1;shadow=1;fontSize=14;rotation=-90;size=0.5;" vertex="1" parent="1">
          <mxGeometry x="512.5" y="312.5" width="15" height="120" as="geometry" />
        </mxCell>
        <mxCell id="L4z-0B9pBV4TiBmrwhth-15" value="2" style="text;html=1;strokeColor=none;fillColor=none;align=center;verticalAlign=middle;whiteSpace=wrap;rounded=0;shadow=1;fontSize=14;" vertex="1" parent="1">
          <mxGeometry x="490" y="380" width="60" height="30" as="geometry" />
        </mxCell>
        <mxCell id="L4z-0B9pBV4TiBmrwhth-17" value="" style="rounded=0;whiteSpace=wrap;html=1;shadow=1;fontSize=14;fillColor=#f5f5f5;strokeColor=#666666;fontColor=#333333;" vertex="1" parent="1">
          <mxGeometry x="398.5" y="520" width="80" height="40" as="geometry" />
        </mxCell>
        <mxCell id="L4z-0B9pBV4TiBmrwhth-28" style="edgeStyle=orthogonalEdgeStyle;rounded=0;orthogonalLoop=1;jettySize=auto;html=1;exitX=0;exitY=1;exitDx=0;exitDy=0;fontSize=14;" edge="1" parent="1" source="L4z-0B9pBV4TiBmrwhth-18" target="L4z-0B9pBV4TiBmrwhth-27">
          <mxGeometry relative="1" as="geometry" />
        </mxCell>
        <mxCell id="L4z-0B9pBV4TiBmrwhth-18" value="" style="rounded=0;whiteSpace=wrap;html=1;shadow=1;fontSize=14;fillColor=#f8cecc;strokeColor=#b85450;" vertex="1" parent="1">
          <mxGeometry x="478.5" y="520" width="101.5" height="40" as="geometry" />
        </mxCell>
        <mxCell id="L4z-0B9pBV4TiBmrwhth-26" value="&lt;font color=&quot;#7ea6e0&quot; face=&quot;Comic Sans MS&quot;&gt;left&lt;/font&gt;" style="text;html=1;strokeColor=none;fillColor=none;align=center;verticalAlign=middle;whiteSpace=wrap;rounded=0;shadow=1;fontSize=14;" vertex="1" parent="1">
          <mxGeometry x="288.5" y="580" width="60" height="30" as="geometry" />
        </mxCell>
        <mxCell id="L4z-0B9pBV4TiBmrwhth-27" value="&lt;font face=&quot;Comic Sans MS&quot; color=&quot;#f19c99&quot;&gt;right&lt;/font&gt;" style="text;html=1;strokeColor=none;fillColor=none;align=center;verticalAlign=middle;whiteSpace=wrap;rounded=0;shadow=1;fontSize=14;" vertex="1" parent="1">
          <mxGeometry x="448.5" y="580" width="60" height="30" as="geometry" />
        </mxCell>
        <mxCell id="L4z-0B9pBV4TiBmrwhth-32" value="&lt;font face=&quot;Comic Sans MS&quot;&gt;i&lt;/font&gt;" style="text;html=1;strokeColor=none;fillColor=none;align=center;verticalAlign=middle;whiteSpace=wrap;rounded=0;shadow=1;fontSize=14;" vertex="1" parent="1">
          <mxGeometry x="368.13" y="580" width="60" height="30" as="geometry" />
        </mxCell>
        <mxCell id="L4z-0B9pBV4TiBmrwhth-49" style="edgeStyle=orthogonalEdgeStyle;rounded=0;orthogonalLoop=1;jettySize=auto;html=1;exitX=0;exitY=1;exitDx=0;exitDy=0;entryX=0.5;entryY=0;entryDx=0;entryDy=0;fontFamily=Comic Sans MS;fontSize=14;fontColor=#000000;" edge="1" parent="1" source="L4z-0B9pBV4TiBmrwhth-38" target="L4z-0B9pBV4TiBmrwhth-41">
          <mxGeometry relative="1" as="geometry" />
        </mxCell>
        <mxCell id="L4z-0B9pBV4TiBmrwhth-50" style="edgeStyle=orthogonalEdgeStyle;rounded=0;orthogonalLoop=1;jettySize=auto;html=1;exitX=0;exitY=0;exitDx=0;exitDy=0;entryX=0.5;entryY=1;entryDx=0;entryDy=0;fontFamily=Comic Sans MS;fontSize=14;fontColor=#000000;" edge="1" parent="1" source="L4z-0B9pBV4TiBmrwhth-38" target="L4z-0B9pBV4TiBmrwhth-43">
          <mxGeometry relative="1" as="geometry" />
        </mxCell>
        <mxCell id="L4z-0B9pBV4TiBmrwhth-51" style="edgeStyle=orthogonalEdgeStyle;rounded=0;orthogonalLoop=1;jettySize=auto;html=1;exitX=1;exitY=1;exitDx=0;exitDy=0;entryX=0.5;entryY=0;entryDx=0;entryDy=0;fontFamily=Comic Sans MS;fontSize=14;fontColor=#000000;" edge="1" parent="1" source="L4z-0B9pBV4TiBmrwhth-38" target="L4z-0B9pBV4TiBmrwhth-42">
          <mxGeometry relative="1" as="geometry" />
        </mxCell>
        <mxCell id="L4z-0B9pBV4TiBmrwhth-38" value="" style="rounded=0;whiteSpace=wrap;html=1;shadow=1;fontSize=14;fillColor=#f5f5f5;strokeColor=#666666;fontColor=#333333;" vertex="1" parent="1">
          <mxGeometry x="218.5" y="690" width="361.5" height="40" as="geometry" />
        </mxCell>
        <mxCell id="L4z-0B9pBV4TiBmrwhth-41" value="&lt;font color=&quot;#7ea6e0&quot; face=&quot;Comic Sans MS&quot;&gt;left&lt;/font&gt;" style="text;html=1;strokeColor=none;fillColor=none;align=center;verticalAlign=middle;whiteSpace=wrap;rounded=0;shadow=1;fontSize=14;" vertex="1" parent="1">
          <mxGeometry x="200" y="750" width="40" height="30" as="geometry" />
        </mxCell>
        <mxCell id="L4z-0B9pBV4TiBmrwhth-42" value="&lt;font face=&quot;Comic Sans MS&quot; color=&quot;#f19c99&quot;&gt;right&lt;/font&gt;" style="text;html=1;strokeColor=none;fillColor=none;align=center;verticalAlign=middle;whiteSpace=wrap;rounded=0;shadow=1;fontSize=14;" vertex="1" parent="1">
          <mxGeometry x="560" y="750" width="40" height="30" as="geometry" />
        </mxCell>
        <mxCell id="L4z-0B9pBV4TiBmrwhth-43" value="&lt;font face=&quot;Comic Sans MS&quot;&gt;i&lt;/font&gt;" style="text;html=1;strokeColor=none;fillColor=none;align=center;verticalAlign=middle;whiteSpace=wrap;rounded=0;shadow=1;fontSize=14;" vertex="1" parent="1">
          <mxGeometry x="200" y="640" width="40" height="30" as="geometry" />
        </mxCell>
        <mxCell id="L4z-0B9pBV4TiBmrwhth-56" value="" style="shape=curlyBracket;whiteSpace=wrap;html=1;rounded=1;flipH=1;shadow=1;fontFamily=Comic Sans MS;fontSize=14;fontColor=#000000;rotation=-90;size=0.43618912193387377;" vertex="1" parent="1">
          <mxGeometry x="351.57" y="471.57" width="15" height="80" as="geometry" />
        </mxCell>
        <mxCell id="L4z-0B9pBV4TiBmrwhth-57" value="&lt;font style=&quot;font-size: 12px&quot;&gt;全是1&lt;/font&gt;" style="text;html=1;strokeColor=none;fillColor=none;align=center;verticalAlign=middle;whiteSpace=wrap;rounded=0;shadow=1;fontFamily=Comic Sans MS;fontSize=14;fontColor=#000000;" vertex="1" parent="1">
          <mxGeometry x="328.5" y="471.57" width="60" height="30" as="geometry" />
        </mxCell>
      </root>
    </mxGraphModel>
  </diagram>
</mxfile>
